<svg width="410" height="201" viewBox="0 0 410 201" fill="none" xmlns="http://www.w3.org/2000/svg">
<path d="M110.977 198L115.375 186.547H117.008L121.695 198H119.969L118.633 194.531H113.844L112.586 198H110.977ZM114.281 193.297H118.164L116.969 190.125C116.604 189.161 116.333 188.37 116.156 187.75C116.01 188.484 115.805 189.214 115.539 189.938L114.281 193.297ZM128.164 198V196.781C127.518 197.719 126.641 198.188 125.531 198.188C125.042 198.188 124.583 198.094 124.156 197.906C123.734 197.719 123.419 197.484 123.211 197.203C123.008 196.917 122.865 196.568 122.781 196.156C122.724 195.88 122.695 195.443 122.695 194.844V189.703H124.102V194.305C124.102 195.039 124.13 195.534 124.188 195.789C124.276 196.159 124.464 196.451 124.75 196.664C125.036 196.872 125.391 196.977 125.812 196.977C126.234 196.977 126.63 196.87 127 196.656C127.37 196.438 127.63 196.143 127.781 195.773C127.938 195.398 128.016 194.857 128.016 194.148V189.703H129.422V198H128.164ZM134.703 196.742L134.906 197.984C134.51 198.068 134.156 198.109 133.844 198.109C133.333 198.109 132.938 198.029 132.656 197.867C132.375 197.706 132.177 197.495 132.062 197.234C131.948 196.969 131.891 196.414 131.891 195.57V190.797H130.859V189.703H131.891V187.648L133.289 186.805V189.703H134.703V190.797H133.289V195.648C133.289 196.049 133.312 196.307 133.359 196.422C133.411 196.536 133.492 196.628 133.602 196.695C133.716 196.763 133.878 196.797 134.086 196.797C134.242 196.797 134.448 196.779 134.703 196.742ZM135.562 193.852C135.562 192.315 135.99 191.177 136.844 190.438C137.557 189.823 138.427 189.516 139.453 189.516C140.594 189.516 141.526 189.891 142.25 190.641C142.974 191.385 143.336 192.417 143.336 193.734C143.336 194.802 143.174 195.643 142.852 196.258C142.534 196.867 142.068 197.341 141.453 197.68C140.844 198.018 140.177 198.188 139.453 198.188C138.292 198.188 137.352 197.815 136.633 197.07C135.919 196.326 135.562 195.253 135.562 193.852ZM137.008 193.852C137.008 194.914 137.24 195.711 137.703 196.242C138.167 196.768 138.75 197.031 139.453 197.031C140.151 197.031 140.732 196.766 141.195 196.234C141.659 195.703 141.891 194.893 141.891 193.805C141.891 192.779 141.656 192.003 141.188 191.477C140.724 190.945 140.146 190.68 139.453 190.68C138.75 190.68 138.167 190.943 137.703 191.469C137.24 191.995 137.008 192.789 137.008 193.852ZM144.992 198V189.703H146.25V190.867C146.51 190.461 146.857 190.135 147.289 189.891C147.721 189.641 148.214 189.516 148.766 189.516C149.38 189.516 149.883 189.643 150.273 189.898C150.669 190.154 150.948 190.51 151.109 190.969C151.766 190 152.62 189.516 153.672 189.516C154.495 189.516 155.128 189.745 155.57 190.203C156.013 190.656 156.234 191.357 156.234 192.305V198H154.836V192.773C154.836 192.211 154.789 191.807 154.695 191.562C154.607 191.312 154.443 191.112 154.203 190.961C153.964 190.81 153.682 190.734 153.359 190.734C152.776 190.734 152.292 190.93 151.906 191.32C151.521 191.706 151.328 192.326 151.328 193.18V198H149.922V192.609C149.922 191.984 149.807 191.516 149.578 191.203C149.349 190.891 148.974 190.734 148.453 190.734C148.057 190.734 147.69 190.839 147.352 191.047C147.018 191.255 146.776 191.56 146.625 191.961C146.474 192.362 146.398 192.94 146.398 193.695V198H144.992ZM157.797 193.852C157.797 192.315 158.224 191.177 159.078 190.438C159.792 189.823 160.661 189.516 161.688 189.516C162.828 189.516 163.76 189.891 164.484 190.641C165.208 191.385 165.57 192.417 165.57 193.734C165.57 194.802 165.409 195.643 165.086 196.258C164.768 196.867 164.302 197.341 163.688 197.68C163.078 198.018 162.411 198.188 161.688 198.188C160.526 198.188 159.586 197.815 158.867 197.07C158.154 196.326 157.797 195.253 157.797 193.852ZM159.242 193.852C159.242 194.914 159.474 195.711 159.938 196.242C160.401 196.768 160.984 197.031 161.688 197.031C162.385 197.031 162.966 196.766 163.43 196.234C163.893 195.703 164.125 194.893 164.125 193.805C164.125 192.779 163.891 192.003 163.422 191.477C162.958 190.945 162.38 190.68 161.688 190.68C160.984 190.68 160.401 190.943 159.938 191.469C159.474 191.995 159.242 192.789 159.242 193.852ZM170.297 196.742L170.5 197.984C170.104 198.068 169.75 198.109 169.438 198.109C168.927 198.109 168.531 198.029 168.25 197.867C167.969 197.706 167.771 197.495 167.656 197.234C167.542 196.969 167.484 196.414 167.484 195.57V190.797H166.453V189.703H167.484V187.648L168.883 186.805V189.703H170.297V190.797H168.883V195.648C168.883 196.049 168.906 196.307 168.953 196.422C169.005 196.536 169.086 196.628 169.195 196.695C169.31 196.763 169.471 196.797 169.68 196.797C169.836 196.797 170.042 196.779 170.297 196.742ZM171.688 188.164V186.547H173.094V188.164H171.688ZM171.688 198V189.703H173.094V198H171.688ZM177.547 198L174.391 189.703H175.875L177.656 194.672C177.849 195.208 178.026 195.766 178.188 196.344C178.312 195.906 178.487 195.38 178.711 194.766L180.555 189.703H182L178.859 198H177.547ZM188.922 195.328L190.375 195.508C190.146 196.357 189.721 197.016 189.102 197.484C188.482 197.953 187.69 198.188 186.727 198.188C185.513 198.188 184.549 197.815 183.836 197.07C183.128 196.32 182.773 195.271 182.773 193.922C182.773 192.526 183.133 191.443 183.852 190.672C184.57 189.901 185.503 189.516 186.648 189.516C187.758 189.516 188.664 189.893 189.367 190.648C190.07 191.404 190.422 192.466 190.422 193.836C190.422 193.919 190.419 194.044 190.414 194.211H184.227C184.279 195.122 184.536 195.82 185 196.305C185.464 196.789 186.042 197.031 186.734 197.031C187.25 197.031 187.69 196.896 188.055 196.625C188.419 196.354 188.708 195.922 188.922 195.328ZM184.305 193.055H188.938C188.875 192.357 188.698 191.833 188.406 191.484C187.958 190.943 187.378 190.672 186.664 190.672C186.018 190.672 185.474 190.888 185.031 191.32C184.594 191.753 184.352 192.331 184.305 193.055ZM196.805 198V186.547H201.883C202.904 186.547 203.68 186.651 204.211 186.859C204.742 187.062 205.167 187.424 205.484 187.945C205.802 188.466 205.961 189.042 205.961 189.672C205.961 190.484 205.698 191.169 205.172 191.727C204.646 192.284 203.833 192.638 202.734 192.789C203.135 192.982 203.44 193.172 203.648 193.359C204.091 193.766 204.51 194.273 204.906 194.883L206.898 198H204.992L203.477 195.617C203.034 194.93 202.669 194.404 202.383 194.039C202.096 193.674 201.839 193.419 201.609 193.273C201.385 193.128 201.156 193.026 200.922 192.969C200.75 192.932 200.469 192.914 200.078 192.914H198.32V198H196.805ZM198.32 191.602H201.578C202.271 191.602 202.812 191.531 203.203 191.391C203.594 191.245 203.891 191.016 204.094 190.703C204.297 190.385 204.398 190.042 204.398 189.672C204.398 189.13 204.201 188.685 203.805 188.336C203.414 187.987 202.794 187.812 201.945 187.812H198.32V191.602ZM213.602 198V196.781C212.956 197.719 212.078 198.188 210.969 198.188C210.479 198.188 210.021 198.094 209.594 197.906C209.172 197.719 208.857 197.484 208.648 197.203C208.445 196.917 208.302 196.568 208.219 196.156C208.161 195.88 208.133 195.443 208.133 194.844V189.703H209.539V194.305C209.539 195.039 209.568 195.534 209.625 195.789C209.714 196.159 209.901 196.451 210.188 196.664C210.474 196.872 210.828 196.977 211.25 196.977C211.672 196.977 212.068 196.87 212.438 196.656C212.807 196.438 213.068 196.143 213.219 195.773C213.375 195.398 213.453 194.857 213.453 194.148V189.703H214.859V198H213.602ZM218.367 198H217.062V186.547H218.469V190.633C219.062 189.888 219.82 189.516 220.742 189.516C221.253 189.516 221.734 189.62 222.188 189.828C222.646 190.031 223.021 190.32 223.312 190.695C223.609 191.065 223.841 191.513 224.008 192.039C224.174 192.565 224.258 193.128 224.258 193.727C224.258 195.148 223.906 196.247 223.203 197.023C222.5 197.799 221.656 198.188 220.672 198.188C219.693 198.188 218.924 197.779 218.367 196.961V198ZM218.352 193.789C218.352 194.784 218.487 195.503 218.758 195.945C219.201 196.669 219.799 197.031 220.555 197.031C221.169 197.031 221.701 196.766 222.148 196.234C222.596 195.698 222.82 194.901 222.82 193.844C222.82 192.76 222.604 191.961 222.172 191.445C221.745 190.93 221.227 190.672 220.617 190.672C220.003 190.672 219.471 190.94 219.023 191.477C218.576 192.008 218.352 192.779 218.352 193.789ZM227.273 198H225.969V186.547H227.375V190.633C227.969 189.888 228.727 189.516 229.648 189.516C230.159 189.516 230.641 189.62 231.094 189.828C231.552 190.031 231.927 190.32 232.219 190.695C232.516 191.065 232.747 191.513 232.914 192.039C233.081 192.565 233.164 193.128 233.164 193.727C233.164 195.148 232.812 196.247 232.109 197.023C231.406 197.799 230.562 198.188 229.578 198.188C228.599 198.188 227.831 197.779 227.273 196.961V198ZM227.258 193.789C227.258 194.784 227.393 195.503 227.664 195.945C228.107 196.669 228.706 197.031 229.461 197.031C230.076 197.031 230.607 196.766 231.055 196.234C231.503 195.698 231.727 194.901 231.727 193.844C231.727 192.76 231.51 191.961 231.078 191.445C230.651 190.93 230.133 190.672 229.523 190.672C228.909 190.672 228.378 190.94 227.93 191.477C227.482 192.008 227.258 192.779 227.258 193.789ZM240.562 195.328L242.016 195.508C241.786 196.357 241.362 197.016 240.742 197.484C240.122 197.953 239.331 198.188 238.367 198.188C237.154 198.188 236.19 197.815 235.477 197.07C234.768 196.32 234.414 195.271 234.414 193.922C234.414 192.526 234.773 191.443 235.492 190.672C236.211 189.901 237.143 189.516 238.289 189.516C239.398 189.516 240.305 189.893 241.008 190.648C241.711 191.404 242.062 192.466 242.062 193.836C242.062 193.919 242.06 194.044 242.055 194.211H235.867C235.919 195.122 236.177 195.82 236.641 196.305C237.104 196.789 237.682 197.031 238.375 197.031C238.891 197.031 239.331 196.896 239.695 196.625C240.06 196.354 240.349 195.922 240.562 195.328ZM235.945 193.055H240.578C240.516 192.357 240.339 191.833 240.047 191.484C239.599 190.943 239.018 190.672 238.305 190.672C237.659 190.672 237.115 190.888 236.672 191.32C236.234 191.753 235.992 192.331 235.945 193.055ZM243.773 198V189.703H245.039V190.961C245.362 190.372 245.659 189.984 245.93 189.797C246.206 189.609 246.508 189.516 246.836 189.516C247.31 189.516 247.792 189.667 248.281 189.969L247.797 191.273C247.453 191.07 247.109 190.969 246.766 190.969C246.458 190.969 246.182 191.062 245.938 191.25C245.693 191.432 245.518 191.688 245.414 192.016C245.258 192.516 245.18 193.062 245.18 193.656V198H243.773ZM253.75 198V186.547H258.07C258.831 186.547 259.411 186.583 259.812 186.656C260.375 186.75 260.846 186.93 261.227 187.195C261.607 187.456 261.911 187.823 262.141 188.297C262.375 188.771 262.492 189.292 262.492 189.859C262.492 190.833 262.182 191.659 261.562 192.336C260.943 193.008 259.823 193.344 258.203 193.344H255.266V198H253.75ZM255.266 191.992H258.227C259.206 191.992 259.901 191.81 260.312 191.445C260.724 191.081 260.93 190.568 260.93 189.906C260.93 189.427 260.807 189.018 260.562 188.68C260.323 188.336 260.005 188.109 259.609 188C259.354 187.932 258.883 187.898 258.195 187.898H255.266V191.992ZM269.656 196.977C269.135 197.419 268.633 197.732 268.148 197.914C267.669 198.096 267.154 198.188 266.602 198.188C265.69 198.188 264.99 197.966 264.5 197.523C264.01 197.076 263.766 196.505 263.766 195.812C263.766 195.406 263.857 195.036 264.039 194.703C264.227 194.365 264.469 194.094 264.766 193.891C265.068 193.688 265.406 193.534 265.781 193.43C266.057 193.357 266.474 193.286 267.031 193.219C268.167 193.083 269.003 192.922 269.539 192.734C269.544 192.542 269.547 192.419 269.547 192.367C269.547 191.794 269.414 191.391 269.148 191.156C268.789 190.839 268.255 190.68 267.547 190.68C266.885 190.68 266.396 190.797 266.078 191.031C265.766 191.26 265.534 191.669 265.383 192.258L264.008 192.07C264.133 191.482 264.339 191.008 264.625 190.648C264.911 190.284 265.326 190.005 265.867 189.812C266.409 189.615 267.036 189.516 267.75 189.516C268.458 189.516 269.034 189.599 269.477 189.766C269.919 189.932 270.245 190.143 270.453 190.398C270.661 190.648 270.807 190.966 270.891 191.352C270.938 191.591 270.961 192.023 270.961 192.648V194.523C270.961 195.831 270.99 196.659 271.047 197.008C271.109 197.352 271.229 197.682 271.406 198H269.938C269.792 197.708 269.698 197.367 269.656 196.977ZM269.539 193.836C269.029 194.044 268.263 194.221 267.242 194.367C266.664 194.451 266.255 194.544 266.016 194.648C265.776 194.753 265.591 194.906 265.461 195.109C265.331 195.307 265.266 195.529 265.266 195.773C265.266 196.148 265.406 196.461 265.688 196.711C265.974 196.961 266.391 197.086 266.938 197.086C267.479 197.086 267.961 196.969 268.383 196.734C268.805 196.495 269.115 196.169 269.312 195.758C269.464 195.44 269.539 194.971 269.539 194.352V193.836ZM273.133 198V189.703H274.398V190.961C274.721 190.372 275.018 189.984 275.289 189.797C275.565 189.609 275.867 189.516 276.195 189.516C276.669 189.516 277.151 189.667 277.641 189.969L277.156 191.273C276.812 191.07 276.469 190.969 276.125 190.969C275.818 190.969 275.542 191.062 275.297 191.25C275.052 191.432 274.878 191.688 274.773 192.016C274.617 192.516 274.539 193.062 274.539 193.656V198H273.133ZM281.547 196.742L281.75 197.984C281.354 198.068 281 198.109 280.688 198.109C280.177 198.109 279.781 198.029 279.5 197.867C279.219 197.706 279.021 197.495 278.906 197.234C278.792 196.969 278.734 196.414 278.734 195.57V190.797H277.703V189.703H278.734V187.648L280.133 186.805V189.703H281.547V190.797H280.133V195.648C280.133 196.049 280.156 196.307 280.203 196.422C280.255 196.536 280.336 196.628 280.445 196.695C280.56 196.763 280.721 196.797 280.93 196.797C281.086 196.797 281.292 196.779 281.547 196.742ZM282.367 195.523L283.758 195.305C283.836 195.862 284.052 196.289 284.406 196.586C284.766 196.883 285.266 197.031 285.906 197.031C286.552 197.031 287.031 196.901 287.344 196.641C287.656 196.375 287.812 196.065 287.812 195.711C287.812 195.393 287.674 195.143 287.398 194.961C287.206 194.836 286.727 194.677 285.961 194.484C284.93 194.224 284.214 194 283.812 193.812C283.417 193.62 283.115 193.357 282.906 193.023C282.703 192.685 282.602 192.312 282.602 191.906C282.602 191.536 282.685 191.195 282.852 190.883C283.023 190.565 283.255 190.302 283.547 190.094C283.766 189.932 284.062 189.797 284.438 189.688C284.818 189.573 285.224 189.516 285.656 189.516C286.307 189.516 286.878 189.609 287.367 189.797C287.862 189.984 288.227 190.24 288.461 190.562C288.695 190.88 288.857 191.307 288.945 191.844L287.57 192.031C287.508 191.604 287.326 191.271 287.023 191.031C286.727 190.792 286.305 190.672 285.758 190.672C285.112 190.672 284.651 190.779 284.375 190.992C284.099 191.206 283.961 191.456 283.961 191.742C283.961 191.924 284.018 192.089 284.133 192.234C284.247 192.385 284.427 192.51 284.672 192.609C284.812 192.661 285.227 192.781 285.914 192.969C286.909 193.234 287.602 193.453 287.992 193.625C288.388 193.792 288.698 194.036 288.922 194.359C289.146 194.682 289.258 195.083 289.258 195.562C289.258 196.031 289.12 196.474 288.844 196.891C288.573 197.302 288.18 197.622 287.664 197.852C287.148 198.076 286.565 198.188 285.914 198.188C284.836 198.188 284.013 197.964 283.445 197.516C282.883 197.068 282.523 196.404 282.367 195.523Z" fill="#919191"/>
<path d="M63.252 68.0381L75.9082 66.8076C76.6699 71.0557 78.208 74.1758 80.5225 76.168C82.8662 78.1602 86.0156 79.1562 89.9707 79.1562C94.1602 79.1562 97.3096 78.2773 99.4189 76.5195C101.558 74.7324 102.627 72.6523 102.627 70.2793C102.627 68.7559 102.173 67.4668 101.265 66.4121C100.386 65.3281 98.833 64.3906 96.6064 63.5996C95.083 63.0723 91.6113 62.1348 86.1914 60.7871C79.2188 59.0586 74.3262 56.9346 71.5137 54.415C67.5586 50.8701 65.5811 46.5488 65.5811 41.4512C65.5811 38.1699 66.5039 35.1084 68.3496 32.2666C70.2246 29.3955 72.9053 27.2129 76.3916 25.7188C79.9072 24.2246 84.1406 23.4775 89.0918 23.4775C97.1777 23.4775 103.257 25.25 107.329 28.7949C111.431 32.3398 113.584 37.0713 113.789 42.9893L100.781 43.5605C100.225 40.25 99.0234 37.877 97.1777 36.4414C95.3613 34.9766 92.6221 34.2441 88.96 34.2441C85.1807 34.2441 82.2217 35.0205 80.083 36.5732C78.7061 37.5693 78.0176 38.9023 78.0176 40.5723C78.0176 42.0957 78.6621 43.3994 79.9512 44.4834C81.5918 45.8604 85.5762 47.2959 91.9043 48.79C98.2324 50.2842 102.905 51.8369 105.923 53.4482C108.97 55.0303 111.343 57.2129 113.042 59.9961C114.771 62.75 115.635 66.1631 115.635 70.2354C115.635 73.9268 114.609 77.3838 112.559 80.6064C110.508 83.8291 107.607 86.2314 103.857 87.8135C100.107 89.3662 95.4346 90.1426 89.8389 90.1426C81.6943 90.1426 75.4395 88.2676 71.0742 84.5176C66.709 80.7383 64.1016 75.2451 63.252 68.0381ZM157.207 89V82.0127C155.508 84.5029 153.267 86.4658 150.483 87.9014C147.729 89.3369 144.814 90.0547 141.738 90.0547C138.604 90.0547 135.791 89.3662 133.301 87.9893C130.811 86.6123 129.009 84.6787 127.896 82.1885C126.782 79.6982 126.226 76.2559 126.226 71.8613V42.3301H138.574V63.7754C138.574 70.3379 138.794 74.3662 139.233 75.8604C139.702 77.3252 140.537 78.4971 141.738 79.376C142.939 80.2256 144.463 80.6504 146.309 80.6504C148.418 80.6504 150.308 80.0791 151.978 78.9365C153.647 77.7646 154.79 76.3291 155.405 74.6299C156.021 72.9014 156.328 68.6973 156.328 62.0176V42.3301H168.677V89H157.207ZM180.586 42.3301H191.968V48.7021C196.04 43.751 200.889 41.2754 206.514 41.2754C209.502 41.2754 212.095 41.8906 214.292 43.1211C216.489 44.3516 218.291 46.2119 219.697 48.7021C221.748 46.2119 223.96 44.3516 226.333 43.1211C228.706 41.8906 231.24 41.2754 233.936 41.2754C237.363 41.2754 240.264 41.9785 242.637 43.3848C245.01 44.7617 246.782 46.7979 247.954 49.4932C248.804 51.4854 249.229 54.708 249.229 59.1611V89H236.88V62.3252C236.88 57.6963 236.455 54.708 235.605 53.3604C234.463 51.6025 232.705 50.7236 230.332 50.7236C228.604 50.7236 226.978 51.251 225.454 52.3057C223.931 53.3604 222.832 54.9131 222.158 56.9639C221.484 58.9854 221.147 62.1934 221.147 66.5879V89H208.799V63.4238C208.799 58.8828 208.579 55.9531 208.14 54.6348C207.7 53.3164 207.012 52.335 206.074 51.6904C205.166 51.0459 203.921 50.7236 202.339 50.7236C200.435 50.7236 198.721 51.2363 197.197 52.2617C195.674 53.2871 194.575 54.7666 193.901 56.7002C193.257 58.6338 192.935 61.8418 192.935 66.3242V89H180.586V42.3301ZM270.806 56.5684L259.6 54.5469C260.859 50.0352 263.027 46.6953 266.104 44.5273C269.18 42.3594 273.75 41.2754 279.814 41.2754C285.322 41.2754 289.424 41.9346 292.119 43.2529C294.814 44.542 296.704 46.1973 297.788 48.2188C298.901 50.2109 299.458 53.8877 299.458 59.249L299.326 73.6631C299.326 77.7646 299.517 80.7969 299.897 82.7598C300.308 84.6934 301.055 86.7734 302.139 89H289.922C289.6 88.1797 289.204 86.9639 288.735 85.3525C288.53 84.6201 288.384 84.1367 288.296 83.9023C286.187 85.9531 283.931 87.4912 281.528 88.5166C279.126 89.542 276.562 90.0547 273.838 90.0547C269.033 90.0547 265.239 88.751 262.456 86.1436C259.702 83.5361 258.325 80.2402 258.325 76.2559C258.325 73.6191 258.955 71.2754 260.215 69.2246C261.475 67.1445 263.232 65.5625 265.488 64.4785C267.773 63.3652 271.055 62.3984 275.332 61.5781C281.104 60.4941 285.103 59.4834 287.329 58.5459V57.3154C287.329 54.9424 286.743 53.2578 285.571 52.2617C284.399 51.2363 282.188 50.7236 278.936 50.7236C276.738 50.7236 275.024 51.1631 273.794 52.042C272.563 52.8916 271.567 54.4004 270.806 56.5684ZM287.329 66.5879C285.747 67.1152 283.242 67.7451 279.814 68.4775C276.387 69.21 274.146 69.9277 273.091 70.6309C271.479 71.7734 270.674 73.2236 270.674 74.9814C270.674 76.71 271.318 78.2041 272.607 79.4639C273.896 80.7236 275.537 81.3535 277.529 81.3535C279.756 81.3535 281.88 80.6211 283.901 79.1562C285.396 78.043 286.377 76.6807 286.846 75.0693C287.168 74.0146 287.329 72.0078 287.329 69.0488V66.5879ZM323.496 89H311.147V42.3301H322.617V48.9658C324.58 45.8311 326.338 43.7656 327.891 42.7695C329.473 41.7734 331.26 41.2754 333.252 41.2754C336.064 41.2754 338.774 42.0518 341.382 43.6045L337.559 54.3711C335.479 53.0234 333.545 52.3496 331.758 52.3496C330.029 52.3496 328.564 52.833 327.363 53.7998C326.162 54.7373 325.21 56.4512 324.507 58.9414C323.833 61.4316 323.496 66.6465 323.496 74.5859V89Z" fill="#F3F4F5"/>
<path d="M0.82 169L10.792 146.968L9.244 143.8H15.688L26.56 169H20.26L18.568 165.04H5.176L3.412 169H0.82ZM6.256 162.628H17.56L12.124 149.704L6.256 162.628ZM38.9828 152.8H44.0228V169H38.9828V167.848C37.6628 168.328 36.5348 168.688 35.5988 168.928C34.6868 169.144 33.7748 169.252 32.8628 169.252C32.3108 169.252 31.7708 169.192 31.2428 169.072C30.7388 168.952 30.2828 168.748 29.8748 168.46C29.4908 168.148 29.1668 167.74 28.9028 167.236C28.6628 166.732 28.5428 166.084 28.5428 165.292V152.8H33.5828V164.752C33.5828 165.568 33.7508 166.12 34.0868 166.408C34.4228 166.696 34.8668 166.84 35.4188 166.84C35.8748 166.84 36.3908 166.792 36.9668 166.696C37.5428 166.6 38.2148 166.42 38.9828 166.156V152.8ZM46.5358 152.8H49.4158V146.968L54.4558 146.248V152.8H57.3358V154.492H54.4558V169H49.4158V154.492H46.5358V152.8ZM67.7544 169.252C66.3384 169.252 65.0664 169.048 63.9384 168.64C62.8104 168.232 61.8504 167.668 61.0584 166.948C60.2904 166.204 59.6904 165.316 59.2584 164.284C58.8504 163.252 58.6464 162.124 58.6464 160.9C58.6464 159.652 58.8504 158.512 59.2584 157.48C59.6904 156.448 60.2904 155.56 61.0584 154.816C61.8504 154.072 62.8104 153.496 63.9384 153.088C65.0664 152.68 66.3384 152.476 67.7544 152.476C69.1704 152.476 70.4424 152.68 71.5704 153.088C72.6984 153.496 73.6464 154.072 74.4144 154.816C75.2064 155.56 75.8064 156.448 76.2144 157.48C76.6464 158.512 76.8624 159.652 76.8624 160.9C76.8624 162.124 76.6464 163.252 76.2144 164.284C75.8064 165.316 75.2064 166.204 74.4144 166.948C73.6464 167.668 72.6984 168.232 71.5704 168.64C70.4424 169.048 69.1704 169.252 67.7544 169.252ZM63.9384 160.9C63.9384 161.74 63.9984 162.568 64.1184 163.384C64.2624 164.2 64.4904 164.932 64.8024 165.58C65.1144 166.228 65.5104 166.756 65.9904 167.164C66.4704 167.548 67.0584 167.74 67.7544 167.74C68.4264 167.74 69.0024 167.548 69.4824 167.164C69.9624 166.756 70.3464 166.228 70.6344 165.58C70.9464 164.932 71.1744 164.2 71.3184 163.384C71.4624 162.568 71.5344 161.74 71.5344 160.9C71.5344 160.132 71.4624 159.34 71.3184 158.524C71.1744 157.708 70.9464 156.964 70.6344 156.292C70.3464 155.62 69.9624 155.068 69.4824 154.636C69.0024 154.204 68.4264 153.988 67.7544 153.988C67.0584 153.988 66.4704 154.192 65.9904 154.6C65.5104 155.008 65.1144 155.548 64.8024 156.22C64.4904 156.868 64.2624 157.612 64.1184 158.452C63.9984 159.268 63.9384 160.084 63.9384 160.9ZM105.418 147.544C104.482 146.968 103.534 146.56 102.574 146.32C101.638 146.056 100.75 145.924 99.91 145.924C99.094 145.924 98.446 146.056 97.966 146.32C97.51 146.56 97.282 146.968 97.282 147.544C97.282 147.976 97.402 148.468 97.642 149.02C97.882 149.548 98.35 150.184 99.046 150.928L103.942 156.292C104.71 157.132 105.334 157.888 105.814 158.56C106.294 159.208 106.666 159.808 106.93 160.36C107.194 160.888 107.374 161.38 107.47 161.836C107.566 162.292 107.614 162.724 107.614 163.132C107.614 164.116 107.398 165.004 106.966 165.796C106.534 166.564 105.958 167.224 105.238 167.776C104.518 168.328 103.678 168.748 102.718 169.036C101.758 169.348 100.75 169.504 99.694 169.504C98.158 169.504 96.802 169.324 95.626 168.964C94.45 168.604 93.442 168.184 92.602 167.704C91.762 167.224 91.078 166.732 90.55 166.228C90.022 165.7 89.638 165.268 89.398 164.932L90.838 163.276C91.39 163.804 91.93 164.284 92.458 164.716C92.986 165.148 93.538 165.532 94.114 165.868C94.69 166.18 95.29 166.432 95.914 166.624C96.562 166.792 97.27 166.876 98.038 166.876C100.246 166.876 101.35 165.916 101.35 163.996C101.35 163.612 101.266 163.228 101.098 162.844C100.954 162.46 100.762 162.088 100.522 161.728C100.306 161.368 100.066 161.032 99.802 160.72C99.562 160.408 99.346 160.144 99.154 159.928L93.682 153.52C92.986 152.704 92.362 151.84 91.81 150.928C91.282 150.016 91.018 149.056 91.018 148.048C91.018 147.64 91.102 147.172 91.27 146.644C91.438 146.092 91.774 145.576 92.278 145.096C92.782 144.592 93.502 144.172 94.438 143.836C95.398 143.476 96.67 143.296 98.254 143.296C99.886 143.296 101.458 143.548 102.97 144.052C104.482 144.556 105.766 145.18 106.822 145.924L105.418 147.544ZM115.708 153.88C116.332 153.544 117.028 153.256 117.796 153.016C118.564 152.776 119.356 152.656 120.172 152.656C121.276 152.656 122.284 152.86 123.196 153.268C124.132 153.652 124.936 154.204 125.608 154.924C126.28 155.62 126.796 156.46 127.156 157.444C127.54 158.404 127.732 159.448 127.732 160.576C127.732 161.656 127.564 162.712 127.228 163.744C126.916 164.752 126.388 165.652 125.644 166.444C124.924 167.212 123.976 167.836 122.8 168.316C121.624 168.772 120.196 169 118.516 169H115.708V174.94L110.668 175.66V152.8H115.708V153.88ZM116.5 167.488C117.436 167.488 118.264 167.32 118.984 166.984C119.728 166.648 120.352 166.18 120.856 165.58C121.36 164.956 121.744 164.224 122.008 163.384C122.272 162.52 122.404 161.584 122.404 160.576C122.404 159.544 122.296 158.668 122.08 157.948C121.864 157.204 121.564 156.604 121.18 156.148C120.82 155.692 120.388 155.356 119.884 155.14C119.404 154.924 118.9 154.816 118.372 154.816C117.844 154.816 117.352 154.9 116.896 155.068C116.44 155.212 116.044 155.38 115.708 155.572V167.488H116.5ZM132.185 153.916C132.665 153.724 133.205 153.544 133.805 153.376C134.405 153.208 135.029 153.064 135.677 152.944C136.325 152.8 136.973 152.692 137.621 152.62C138.293 152.524 138.929 152.476 139.529 152.476C141.353 152.476 142.769 152.824 143.777 153.52C144.809 154.192 145.325 155.344 145.325 156.976V169H137.513C135.113 169 133.241 168.448 131.897 167.344C130.577 166.24 129.917 164.752 129.917 162.88C129.917 161.176 130.481 159.868 131.609 158.956C132.761 158.02 134.333 157.552 136.325 157.552C136.973 157.552 137.633 157.624 138.305 157.768C139.001 157.888 139.661 158.08 140.285 158.344V157.264C140.285 156.976 140.261 156.688 140.213 156.4C140.189 156.088 140.081 155.812 139.889 155.572C139.721 155.308 139.445 155.092 139.061 154.924C138.701 154.756 138.185 154.672 137.513 154.672C137.105 154.672 136.721 154.696 136.361 154.744C136.025 154.768 135.677 154.816 135.317 154.888C134.957 154.96 134.561 155.056 134.129 155.176C133.721 155.272 133.253 155.392 132.725 155.536L132.185 153.916ZM140.285 160C140.021 159.832 139.697 159.688 139.313 159.568C138.953 159.424 138.545 159.352 138.089 159.352C137.081 159.352 136.349 159.712 135.893 160.432C135.437 161.128 135.209 162.004 135.209 163.06C135.209 163.828 135.329 164.488 135.569 165.04C135.809 165.592 136.133 166.048 136.541 166.408C136.973 166.768 137.465 167.044 138.017 167.236C138.569 167.404 139.169 167.488 139.817 167.488H140.285V160ZM154.696 169H149.656V152.8H154.696V153.88C156.352 153.064 157.912 152.656 159.376 152.656C160.024 152.656 160.528 152.776 160.888 153.016C161.272 153.256 161.56 153.604 161.752 154.06C161.968 154.492 162.112 155.008 162.184 155.608C162.28 156.208 162.364 156.868 162.436 157.588L158.116 158.524C158.092 158.188 158.068 157.828 158.044 157.444C158.044 157.036 157.996 156.664 157.9 156.328C157.828 155.968 157.696 155.668 157.504 155.428C157.312 155.188 157.024 155.068 156.64 155.068C156.376 155.068 156.052 155.116 155.668 155.212C155.308 155.284 154.984 155.404 154.696 155.572V169ZM177.962 169H172.382C170.702 169 169.274 168.772 168.098 168.316C166.922 167.836 165.962 167.212 165.218 166.444C164.498 165.652 163.97 164.752 163.634 163.744C163.322 162.712 163.166 161.656 163.166 160.576C163.166 159.448 163.358 158.392 163.742 157.408C164.126 156.424 164.666 155.572 165.362 154.852C166.082 154.108 166.946 153.532 167.954 153.124C168.986 152.692 170.15 152.476 171.446 152.476C172.43 152.476 173.366 152.608 174.254 152.872C175.166 153.136 175.958 153.604 176.63 154.276C177.326 154.924 177.878 155.8 178.286 156.904C178.694 158.008 178.898 159.4 178.898 161.08H168.566C168.59 161.944 168.722 162.772 168.962 163.564C169.226 164.332 169.61 165.004 170.114 165.58C170.642 166.156 171.314 166.624 172.13 166.984C172.946 167.32 173.942 167.488 175.118 167.488H177.962V169ZM173.606 159.568C173.606 158.776 173.558 158.044 173.462 157.372C173.39 156.676 173.258 156.076 173.066 155.572C172.898 155.068 172.658 154.684 172.346 154.42C172.058 154.132 171.686 153.988 171.23 153.988C170.366 153.988 169.718 154.468 169.286 155.428C168.854 156.364 168.602 157.744 168.53 159.568H173.606ZM199.269 158.02H201.141C202.125 158.02 202.989 157.864 203.733 157.552C204.501 157.24 205.137 156.82 205.641 156.292C206.145 155.74 206.529 155.092 206.793 154.348C207.057 153.604 207.189 152.812 207.189 151.972C207.189 150.772 207.021 149.788 206.685 149.02C206.373 148.228 205.917 147.604 205.317 147.148C204.717 146.692 203.985 146.38 203.121 146.212C202.281 146.02 201.345 145.924 200.313 145.924H199.269V158.02ZM199.269 169H193.653V143.8H204.201C205.545 143.8 206.793 143.968 207.945 144.304C209.121 144.64 210.129 145.156 210.969 145.852C211.833 146.524 212.505 147.364 212.985 148.372C213.465 149.38 213.705 150.556 213.705 151.9C213.705 153.172 213.441 154.324 212.913 155.356C212.409 156.364 211.725 157.228 210.861 157.948C209.997 158.644 208.989 159.184 207.837 159.568C206.685 159.952 205.473 160.144 204.201 160.144H199.269V169ZM216.7 153.916C217.18 153.724 217.72 153.544 218.32 153.376C218.92 153.208 219.544 153.064 220.192 152.944C220.84 152.8 221.488 152.692 222.136 152.62C222.808 152.524 223.444 152.476 224.044 152.476C225.868 152.476 227.284 152.824 228.292 153.52C229.324 154.192 229.84 155.344 229.84 156.976V169H222.028C219.628 169 217.756 168.448 216.412 167.344C215.092 166.24 214.432 164.752 214.432 162.88C214.432 161.176 214.996 159.868 216.124 158.956C217.276 158.02 218.848 157.552 220.84 157.552C221.488 157.552 222.148 157.624 222.82 157.768C223.516 157.888 224.176 158.08 224.8 158.344V157.264C224.8 156.976 224.776 156.688 224.728 156.4C224.704 156.088 224.596 155.812 224.404 155.572C224.236 155.308 223.96 155.092 223.576 154.924C223.216 154.756 222.7 154.672 222.028 154.672C221.62 154.672 221.236 154.696 220.876 154.744C220.54 154.768 220.192 154.816 219.832 154.888C219.472 154.96 219.076 155.056 218.644 155.176C218.236 155.272 217.768 155.392 217.24 155.536L216.7 153.916ZM224.8 160C224.536 159.832 224.212 159.688 223.828 159.568C223.468 159.424 223.06 159.352 222.604 159.352C221.596 159.352 220.864 159.712 220.408 160.432C219.952 161.128 219.724 162.004 219.724 163.06C219.724 163.828 219.844 164.488 220.084 165.04C220.324 165.592 220.648 166.048 221.056 166.408C221.488 166.768 221.98 167.044 222.532 167.236C223.084 167.404 223.684 167.488 224.332 167.488H224.8V160ZM239.212 169H234.172V152.8H239.212V153.88C240.868 153.064 242.428 152.656 243.892 152.656C244.54 152.656 245.044 152.776 245.404 153.016C245.788 153.256 246.076 153.604 246.268 154.06C246.484 154.492 246.628 155.008 246.7 155.608C246.796 156.208 246.88 156.868 246.952 157.588L242.632 158.524C242.608 158.188 242.584 157.828 242.56 157.444C242.56 157.036 242.512 156.664 242.416 156.328C242.344 155.968 242.212 155.668 242.02 155.428C241.828 155.188 241.54 155.068 241.156 155.068C240.892 155.068 240.568 155.116 240.184 155.212C239.824 155.284 239.5 155.404 239.212 155.572V169ZM247.313 152.8H250.193V146.968L255.233 146.248V152.8H258.113V154.492H255.233V169H250.193V154.492H247.313V152.8ZM269.068 155.212C268.732 155.092 268.432 154.996 268.168 154.924C267.928 154.828 267.7 154.756 267.484 154.708C267.268 154.636 267.04 154.588 266.8 154.564C266.584 154.516 266.32 154.492 266.008 154.492C265.504 154.492 265.144 154.624 264.928 154.888C264.712 155.128 264.604 155.392 264.604 155.68C264.604 156.136 264.736 156.532 265 156.868C265.288 157.18 265.708 157.66 266.26 158.308L268.024 160.072C268.96 161.008 269.596 161.836 269.932 162.556C270.268 163.276 270.436 164.08 270.436 164.968C270.436 166.264 269.968 167.26 269.032 167.956C268.096 168.652 266.74 169 264.964 169H259.024V167.308H263.128C263.344 167.308 263.56 167.284 263.776 167.236C264.016 167.188 264.232 167.104 264.424 166.984C264.616 166.84 264.772 166.648 264.892 166.408C265.036 166.168 265.108 165.868 265.108 165.508C265.108 165.22 265.024 164.932 264.856 164.644C264.712 164.332 264.532 164.02 264.316 163.708C264.1 163.396 263.86 163.096 263.596 162.808C263.356 162.52 263.14 162.244 262.948 161.98L261.22 159.82C261.004 159.556 260.788 159.304 260.572 159.064C260.38 158.8 260.2 158.536 260.032 158.272C259.888 157.984 259.756 157.672 259.636 157.336C259.54 156.976 259.492 156.58 259.492 156.148C259.492 155.092 259.936 154.216 260.824 153.52C261.712 152.824 263.128 152.476 265.072 152.476C265.912 152.476 266.752 152.56 267.592 152.728C268.456 152.896 269.344 153.184 270.256 153.592L269.068 155.212ZM282.5 143.8H301.508V146.212H294.848V169H289.232V146.212H282.5V143.8ZM307.45 169H302.41V152.8H307.45V153.88C309.106 153.064 310.666 152.656 312.13 152.656C312.778 152.656 313.282 152.776 313.642 153.016C314.026 153.256 314.314 153.604 314.506 154.06C314.722 154.492 314.866 155.008 314.938 155.608C315.034 156.208 315.118 156.868 315.19 157.588L310.87 158.524C310.846 158.188 310.822 157.828 310.798 157.444C310.798 157.036 310.75 156.664 310.654 156.328C310.582 155.968 310.45 155.668 310.258 155.428C310.066 155.188 309.778 155.068 309.394 155.068C309.13 155.068 308.806 155.116 308.422 155.212C308.062 155.284 307.738 155.404 307.45 155.572V169ZM328.295 167.488V155.572C327.959 155.38 327.563 155.212 327.107 155.068C326.651 154.9 326.159 154.816 325.631 154.816C325.079 154.816 324.563 154.924 324.083 155.14C323.603 155.356 323.171 155.692 322.787 156.148C322.427 156.604 322.139 157.204 321.923 157.948C321.707 158.668 321.599 159.544 321.599 160.576C321.599 161.584 321.731 162.52 321.995 163.384C322.259 164.224 322.643 164.956 323.147 165.58C323.651 166.18 324.263 166.648 324.983 166.984C325.727 167.32 326.567 167.488 327.503 167.488H328.295ZM333.335 143.8V169H325.487C323.807 169 322.379 168.772 321.203 168.316C320.027 167.836 319.067 167.212 318.323 166.444C317.603 165.652 317.075 164.752 316.739 163.744C316.427 162.712 316.271 161.656 316.271 160.576C316.271 159.448 316.451 158.404 316.811 157.444C317.195 156.46 317.723 155.62 318.395 154.924C319.067 154.204 319.859 153.652 320.771 153.268C321.707 152.86 322.727 152.656 323.831 152.656C324.647 152.656 325.439 152.776 326.207 153.016C326.975 153.256 327.671 153.544 328.295 153.88V143.8H333.335ZM351.485 173.4C351.031 173.04 350.551 172.547 350.045 171.92C349.538 171.307 349.071 170.6 348.645 169.8C348.231 169 347.885 168.127 347.605 167.18C347.338 166.233 347.205 165.247 347.205 164.22C347.205 163.18 347.338 162.187 347.605 161.24C347.885 160.28 348.231 159.4 348.645 158.6C349.071 157.8 349.531 157.093 350.025 156.48C350.531 155.867 351.018 155.367 351.485 154.98H353.465C352.545 156.14 351.811 157.473 351.265 158.98C350.718 160.473 350.445 162.22 350.445 164.22C350.445 166.22 350.718 167.967 351.265 169.46C351.811 170.967 352.538 172.28 353.445 173.4H351.485ZM355.366 155H358.486V167.66H364.406V169H355.366V155ZM365.215 166.24H368.475V169H365.215V166.24ZM371.069 155H374.189V167.66H380.109V169H371.069V155ZM380.918 166.24H384.178V169H380.918V166.24ZM399.761 166.4C399.615 166.587 399.381 166.84 399.061 167.16C398.755 167.48 398.348 167.8 397.841 168.12C397.335 168.427 396.728 168.7 396.021 168.94C395.315 169.167 394.501 169.28 393.581 169.28C392.408 169.28 391.335 169.1 390.361 168.74C389.388 168.367 388.555 167.86 387.861 167.22C387.168 166.567 386.628 165.8 386.241 164.92C385.868 164.027 385.681 163.053 385.681 162C385.681 160.947 385.861 159.98 386.221 159.1C386.595 158.207 387.121 157.44 387.801 156.8C388.481 156.147 389.308 155.64 390.281 155.28C391.255 154.907 392.355 154.72 393.581 154.72C394.955 154.72 396.135 154.96 397.121 155.44C398.108 155.92 398.928 156.54 399.581 157.3L398.621 158.24C398.408 158 398.148 157.76 397.841 157.52C397.548 157.267 397.215 157.047 396.841 156.86C396.468 156.66 396.061 156.5 395.621 156.38C395.181 156.247 394.715 156.18 394.221 156.18C393.488 156.18 392.821 156.327 392.221 156.62C391.621 156.913 391.101 157.32 390.661 157.84C390.235 158.36 389.901 158.987 389.661 159.72C389.435 160.44 389.321 161.227 389.321 162.08C389.321 162.92 389.455 163.68 389.721 164.36C390.001 165.04 390.368 165.627 390.821 166.12C391.288 166.6 391.821 166.973 392.421 167.24C393.021 167.493 393.641 167.62 394.281 167.62C394.801 167.62 395.268 167.567 395.681 167.46C396.108 167.34 396.495 167.18 396.841 166.98C397.188 166.78 397.508 166.547 397.801 166.28C398.108 166.013 398.401 165.727 398.681 165.42L399.761 166.4ZM400.414 173.4C401.32 172.28 402.047 170.967 402.594 169.46C403.14 167.967 403.414 166.22 403.414 164.22C403.414 162.22 403.14 160.473 402.594 158.98C402.047 157.473 401.314 156.14 400.394 154.98H402.374C402.827 155.367 403.307 155.867 403.814 156.48C404.32 157.093 404.78 157.8 405.194 158.6C405.62 159.4 405.967 160.28 406.234 161.24C406.514 162.187 406.654 163.18 406.654 164.22C406.654 165.247 406.514 166.233 406.234 167.18C405.967 168.127 405.62 169 405.194 169.8C404.78 170.6 404.32 171.307 403.814 171.92C403.307 172.547 402.827 173.04 402.374 173.4H400.414Z" fill="#F3F4F5"/>
<rect x="17.5" y="3.5" width="364" height="110" rx="55" stroke="#F3F4F5" stroke-width="7"/>
</svg>
